<svg width="25" height="25" viewBox="0 0 25 25" fill="none" xmlns="http://www.w3.org/2000/svg">
<g clip-path="url(#clip0_62_213)">
<path d="M12.3213 12.0426C13.9757 12.0426 15.4083 11.4492 16.5788 10.2785C17.7494 9.10793 18.3428 7.67571 18.3428 6.02109C18.3428 4.36705 17.7494 2.93463 16.5787 1.76372C15.4079 0.593374 13.9755 0 12.3213 0C10.6667 0 9.23444 0.593374 8.0639 1.76391C6.89337 2.93444 6.2998 4.36686 6.2998 6.02109C6.2998 7.67571 6.89337 9.10813 8.0641 10.2787C9.23482 11.449 10.6672 12.0426 12.3213 12.0426Z" fill="#396AFF"/>
<path d="M22.8578 19.2239C22.824 18.7368 22.7557 18.2054 22.6552 17.6443C22.5537 17.0789 22.4231 16.5445 22.2667 16.056C22.1051 15.5512 21.8854 15.0526 21.6138 14.5748C21.3319 14.0789 21.0008 13.6471 20.6292 13.2917C20.2407 12.92 19.765 12.6211 19.2149 12.4031C18.6668 12.1862 18.0593 12.0764 17.4095 12.0764C17.1543 12.0764 16.9074 12.1811 16.4308 12.4914C16.1374 12.6827 15.7943 12.904 15.4113 13.1487C15.0838 13.3573 14.6402 13.5528 14.0922 13.7298C13.5576 13.9028 13.0147 13.9906 12.479 13.9906C11.9432 13.9906 11.4006 13.9028 10.8654 13.7298C10.318 13.553 9.87431 13.3575 9.5472 13.1489C9.16783 12.9064 8.82451 12.6852 8.52678 12.4912C8.0507 12.1809 7.8037 12.0762 7.5485 12.0762C6.89848 12.0762 6.29118 12.1862 5.7432 12.4033C5.19351 12.6209 4.71763 12.9198 4.32872 13.2919C3.95736 13.6474 3.62605 14.0791 3.34453 14.5748C3.07312 15.0526 2.85339 15.551 2.69165 16.0562C2.53544 16.5447 2.40478 17.0789 2.30331 17.6443C2.2028 18.2046 2.13451 18.7362 2.10075 19.2245C2.06757 19.7029 2.05078 20.1993 2.05078 20.7008C2.05078 22.0058 2.46563 23.0623 3.28369 23.8414C4.09164 24.6103 5.1607 25.0003 6.46074 25.0003H18.4984C19.7984 25.0003 20.8671 24.6105 21.6752 23.8414C22.4935 23.0628 22.9083 22.0062 22.9083 20.7006C22.9081 20.1969 22.8912 19.7 22.8578 19.2239Z" fill="#396AFF"/>
</g>
<defs>
<clipPath id="clip0_62_213">
<rect width="24.9999" height="25" fill="white"/>
</clipPath>
</defs>
</svg>
