<svg width="25" height="21" viewBox="0 0 25 21" fill="none" xmlns="http://www.w3.org/2000/svg">
<path d="M22.9167 3.20806H17.7083V2.16636C17.7083 1.01738 16.774 0.0830078 15.625 0.0830078H9.375C8.22603 0.0830078 7.29165 1.01734 7.29165 2.16636V3.20801H2.08335C0.934326 3.20806 0 4.14239 0 5.29136V8.41637C0 9.56539 0.934326 10.4997 2.08335 10.4997H10.4167V9.97887C10.4167 9.69098 10.6497 9.45802 10.9375 9.45802H14.0625C14.3504 9.45802 14.5834 9.69098 14.5834 9.97887V10.4997H22.9167C24.0657 10.4997 25 9.56539 25 8.41637V5.29136C25 4.14239 24.0657 3.20806 22.9167 3.20806ZM15.625 3.20806H9.375V2.16636H15.625V3.20806Z" fill="#FFBB38"/>
<path d="M24.7111 11.0618C24.5336 10.9739 24.3215 10.9942 24.1648 11.1132C23.7945 11.3935 23.3632 11.5415 22.9166 11.5415H14.5833V13.104C14.5833 13.3919 14.3504 13.6248 14.0625 13.6248H10.9375C10.6496 13.6248 10.4166 13.3919 10.4166 13.104V11.5415H2.08335C1.63677 11.5415 1.20547 11.3935 0.835156 11.1132C0.677979 10.9932 0.466406 10.9728 0.288867 11.0618C0.111914 11.1499 0 11.3304 0 11.5283V18.8332C0 19.9822 0.934326 20.9165 2.08335 20.9165H22.9167C24.0657 20.9165 25 19.9822 25 18.8332V11.5283C25 11.3304 24.8881 11.1499 24.7111 11.0618Z" fill="#FFBB38"/>
</svg>
